<svg version="1.1" viewBox="0.0 0.0 1280.0 720.0" fill="none" stroke="none" stroke-linecap="square" stroke-miterlimit="10" xmlns:xlink="http://www.w3.org/1999/xlink" xmlns="http://www.w3.org/2000/svg"><clipPath id="p4.0"><path d="m0 0l1280.0 0l0 720.0l-1280.0 0l0 -720.0z" clip-rule="nonzero"/></clipPath><g clip-path="url(#p4.0)"><path fill="#ffffff" d="m0 0l1280.0 0l0 720.0l-1280.0 0z" fill-rule="evenodd"/><path fill="#000000" fill-opacity="0.8" d="m0 0l1280.0 0l0 720.0l-1280.0 0z" fill-rule="evenodd"/><path stroke="#31538f" stroke-width="1.3333333333333333" stroke-miterlimit="800.0" stroke-linecap="butt" d="m0 0l1280.0 0l0 720.0l-1280.0 0z" fill-rule="evenodd"/><defs><linearGradient id="p4.1" gradientUnits="userSpaceOnUse" gradientTransform="matrix(35.62302519981834 0.0 0.0 35.62302519981834 0.0 0.0)" spreadMethod="pad" x1="0.15439894852423644" y1="20.057254486759334" x2="35.77742414834258" y2="20.057254486759334"><stop offset="0.0" stop-color="#000000" stop-opacity="0.8"/><stop offset="1.0" stop-color="#2f5496" stop-opacity="0.8"/></linearGradient></defs><path fill="url(#p4.1)" d="m368.46057 500.34625l10.193085 0l0 2.1362305E-4l8.692902 0l0 -2.1362305E-4l448.64032 0l0 5.187988E-4l8.692993 0l0 -5.187988E-4l429.82013 0l0 214.15381l-906.0394 0zm-362.96042 0l354.2674 0l0 214.15381l-354.2674 0zm839.1797 -309.3454l252.1402 0l0 2.1362305E-4l8.692993 0l0 -2.1362305E-4l168.98694 0l0 300.6524l-429.82013 0zm-457.3333 0l448.64032 0l0 300.6524l-448.64032 0zm-381.8464 0l373.1535 0l0 300.6524l-373.1535 0zm1100.013 -121.48756l168.98694 0l0 112.79444l-168.98694 0zm-1100.013 0l1091.32 0l0 112.79444l-1091.32 0zm0 -64.01312l1268.9999 0l0 55.32021l-168.98694 0l0 0l-8.692993 0l0 0l-1091.32 0z" fill-rule="evenodd"/></g></svg>